<svg xmlns="http://www.w3.org/2000/svg" viewBox="0 0 79.36 24"><defs><style>.cls-1{fill:#fff;fill-rule:evenodd;}.cls-2{fill:#f2f2f2;}</style></defs><g id="Layer_2" data-name="Layer 2"><g id="Layer_1-2" data-name="Layer 1"><path class="cls-1" d="M9,0H0V24H9V19.78H5.35V4.18H9Z"/><path class="cls-1" d="M15,0h9V24H15V19.78h3.65V4.18H15Z"/><path class="cls-2" d="M42.56,5H46V19h-3.4V13.08H36.8V19H33.4V5h3.4v5.38h5.76ZM58.73,5h3.4V19H57.45L53,8.58V19h-3.4V5h5l4.14,9.6Zm20.63,6.38v2.7H76.8A2.09,2.09,0,0,1,78,16c0,1.84-2.22,3.36-5.5,3.36-4.5,0-7.36-2.94-7.36-7.38s2.74-7.26,7.16-7.26c3.62,0,6.28,2,6,5.56h-3.5a2.32,2.32,0,0,0-2.54-2.76c-2.26,0-3.6,1.8-3.6,4.46s1.44,4.58,3.78,4.58c1.2,0,2.08-.48,2.08-1.18s-1-1.26-2.6-1.26v-2.7Z"/></g></g></svg>